<svg xmlns="http://www.w3.org/2000/svg" width="121" height="122" fill="none" viewBox="0 0 121 122"><mask id="mask0_572_319" width="121" height="122" x="0" y="0" maskUnits="userSpaceOnUse" style="mask-type:alpha"><path fill="url(#paint0_linear_572_319)" fill-rule="evenodd" d="M36.0687 0C55.9888 0 72.1373 16.1551 72.1373 36.0835V49.7975H84.141C104.061 49.7975 120.21 65.9526 120.21 85.8809C120.21 105.809 104.061 121.964 84.141 121.964H0V36.0835C0 16.1551 16.1485 0 36.0687 0Z" clip-rule="evenodd"/></mask><g mask="url(#mask0_572_319)"><g filter="url(#filter0_f_572_319)"><ellipse cx="52.738" cy="65.101" fill="#4B73FF" rx="81.373" ry="81.192"/></g><g filter="url(#filter1_f_572_319)"><ellipse cx="61.673" cy="20.547" fill="#FF66F4" rx="104.216" ry="81.192"/></g><g filter="url(#filter2_f_572_319)"><ellipse cx="78.666" cy="5.268" fill="#FF0105" rx="81.373" ry="71.304"/></g><g filter="url(#filter3_f_572_319)"><ellipse cx="63.121" cy="20.527" fill="#FE7B02" rx="48.937" ry="48.829"/></g></g><defs><filter id="filter0_f_572_319" width="235.52" height="235.159" x="-65.022" y="-52.478" color-interpolation-filters="sRGB" filterUnits="userSpaceOnUse"><feFlood flood-opacity="0" result="BackgroundImageFix"/><feBlend in="SourceGraphic" in2="BackgroundImageFix" mode="normal" result="shape"/><feGaussianBlur result="effect1_foregroundBlur_572_319" stdDeviation="18.194"/></filter><filter id="filter1_f_572_319" width="281.208" height="235.159" x="-78.93" y="-97.032" color-interpolation-filters="sRGB" filterUnits="userSpaceOnUse"><feFlood flood-opacity="0" result="BackgroundImageFix"/><feBlend in="SourceGraphic" in2="BackgroundImageFix" mode="normal" result="shape"/><feGaussianBlur result="effect1_foregroundBlur_572_319" stdDeviation="18.194"/></filter><filter id="filter2_f_572_319" width="235.52" height="215.383" x="-39.094" y="-102.423" color-interpolation-filters="sRGB" filterUnits="userSpaceOnUse"><feFlood flood-opacity="0" result="BackgroundImageFix"/><feBlend in="SourceGraphic" in2="BackgroundImageFix" mode="normal" result="shape"/><feGaussianBlur result="effect1_foregroundBlur_572_319" stdDeviation="18.194"/></filter><filter id="filter3_f_572_319" width="170.649" height="170.432" x="-22.204" y="-64.688" color-interpolation-filters="sRGB" filterUnits="userSpaceOnUse"><feFlood flood-opacity="0" result="BackgroundImageFix"/><feBlend in="SourceGraphic" in2="BackgroundImageFix" mode="normal" result="shape"/><feGaussianBlur result="effect1_foregroundBlur_572_319" stdDeviation="18.194"/></filter><linearGradient id="paint0_linear_572_319" x1="40.453" x2="76.933" y1="21.433" y2="121.971" gradientUnits="userSpaceOnUse"><stop offset=".025" stop-color="#FF8E63"/><stop offset=".56" stop-color="#FF7EB0"/><stop offset=".95" stop-color="#4B73FF"/></linearGradient></defs></svg>