<svg xmlns="http://www.w3.org/2000/svg" id="Warstwa_1" data-name="Warstwa 1" viewBox="0 0 600 600"><defs><style>.cls-1{fill:#4d68c4}.cls-2{fill:#5190ef}.cls-3{fill:#2bc3f1}</style></defs><title>baserow_logo_glyph</title><rect width="374.174" height="148.348" y="451.652" class="cls-1" rx="32.256" transform="translate(374.17383 1051.65233) rotate(180)"/><path d="M32.256,225.82617H567.744A32.256,32.256,0,0,1,600,258.08217v83.83567a32.256,32.256,0,0,1-32.256,32.256H32.25562A32.25562,32.25562,0,0,1,0,341.91821v-83.836A32.256,32.256,0,0,1,32.256,225.82617Z" class="cls-2" transform="translate(600 600) rotate(180)"/><rect width="374.174" height="148.348" x="225.826" class="cls-3" rx="32.256" transform="translate(825.82617 148.34767) rotate(180)"/><rect width="148.348" height="148.348" x="451.652" y="451.652" class="cls-1" rx="32.256" transform="translate(1051.65233 1051.65234) rotate(-180)"/><rect width="148.348" height="148.348" class="cls-3" rx="32.256"/></svg>