<svg xmlns="http://www.w3.org/2000/svg" width="32" height="35" fill="none" viewBox="0 0 32 35"><path fill="#fff" d="M13.8555 34.2962C14.9325 34.2962 15.8055 33.4451 15.8055 32.3954C15.8055 31.3456 14.9325 30.4946 13.8555 30.4946C12.7786 30.4946 11.9055 31.3456 11.9055 32.3954C11.9055 33.4451 12.7786 34.2962 13.8555 34.2962Z"/><path stroke="#fff" stroke-linecap="square" stroke-width="2.118" d="M18.4138 7.19675L19.2512 2.66005"/><path stroke="#fff" stroke-linecap="square" stroke-linejoin="round" stroke-width="2.118" d="M22.2656 5.5855L19.3466 2.11099L15.3748 4.37292"/><path stroke="#fff" stroke-linecap="square" stroke-width="2.118" d="M14.9202 26.5528L15.7337 22.0169"/><path stroke="#fff" stroke-linecap="square" stroke-linejoin="round" stroke-width="2.118" d="M18.7729 24.9304L15.83 21.4671L11.8701 23.741"/><path stroke="#fff" stroke-linecap="square" stroke-width="2.118" d="M16.6077 17.1996L17.4212 12.6633"/><path stroke="#fff" stroke-linecap="square" stroke-linejoin="round" stroke-width="2.118" d="M20.4587 15.58L17.5277 12.128L13.5679 14.3904"/><path stroke="#fff" stroke-linecap="square" stroke-width="2.01" d="M8.32871 26.1554L4.75171 28.5815"/><path stroke="#fff" stroke-linecap="square" stroke-linejoin="round" stroke-width="2.01" d="M8.54383 30.0865L4.3208 28.8738L4.63185 24.5944"/><path stroke="#fff" stroke-linecap="square" stroke-width="2.01" d="M21.3213 28.4299L23.8096 31.9282"/><path stroke="#fff" stroke-linecap="square" stroke-linejoin="round" stroke-width="2.01" d="M19.718 32.045L24.1085 32.3365L25.3527 28.2438"/><path stroke="#fff" stroke-linecap="square" stroke-width="2.058" d="M25.3999 21.3291L29.7784 22.0996"/><path stroke="#fff" stroke-linecap="square" stroke-linejoin="round" stroke-width="2.058" d="M26.9072 25.072L30.3048 22.1919L28.1634 18.3557"/><path stroke="#fff" stroke-linecap="square" stroke-width="2.058" d="M24.1196 12.8615L28.0197 10.763"/><path stroke="#fff" stroke-linecap="square" stroke-linejoin="round" stroke-width="2.058" d="M24.3357 8.83965L28.4869 10.5188L27.7093 14.8216"/><path stroke="#fff" stroke-linecap="square" stroke-width="2.058" d="M6.91639 18.1572L2.52588 17.4101"/><path stroke="#fff" stroke-linecap="square" stroke-linejoin="round" stroke-width="2.058" d="M4.17731 21.1645L2 17.328L5.36167 14.436"/><path stroke="#fff" stroke-linecap="square" stroke-width="2.058" d="M11.0799 10.6129L8.14893 7.34769"/><path stroke="#fff" stroke-linecap="square" stroke-linejoin="round" stroke-width="2.058" d="M12.2897 6.77496L7.80349 6.96156L7.01392 11.2649"/></svg>